Coordinates
version=1
nRows=38
nColumns=38
inDegrees=no

Units are S.I. units (second, meters, Newtons, ...)
If the header above contains a line with 'inDegrees', this indicates whether rotational values are in degrees (yes) or radians (no).

endheader
time	pelvis_tilt	pelvis_list	pelvis_rotation	pelvis_tx	pelvis_ty	pelvis_tz	hip_flexion_r	hip_adduction_r	hip_rotation_r	knee_angle_r	ankle_angle_r	subtalar_angle_r	mtp_angle_r	hip_flexion_l	hip_adduction_l	hip_rotation_l	knee_angle_l	ankle_angle_l	subtalar_angle_l	mtp_angle_l	lumbar_extension	lumbar_bending	lumbar_rotation	arm_flex_r	arm_add_r	arm_rot_r	elbow_flex_r	pro_sup_r	wrist_flex_r	wrist_dev_r	arm_flex_l	arm_add_l	arm_rot_l	elbow_flex_l	pro_sup_l	wrist_flex_l	wrist_dev_l
5	2.64035	1.44095	-0.975444	0.635942	1.77812	0.929659	-0.21095	0.0548702	0.00843275	0.756384	-0.266188	0	0	0.211065	-0.013381	0.0618772	0.354374	-0.350276	0	0	-0.214598	0.0838311	0.0193614	0.104222	-0.351498	-0.041692	1.89909	1.5708	0	0	0.220597	-0.225615	0.130022	1.78752	1.5708	0	0
5.01	2.68736	1.43935	-1.02181	0.63429	1.78381	0.930748	-0.208131	0.0441606	0.00631613	0.777303	-0.297305	0	0	0.196459	-0.00810597	0.0584125	0.350443	-0.34769	0	0	-0.219751	0.0785587	0.0201264	0.0991941	-0.352304	-0.0482031	1.89976	1.5708	0	0	0.222255	-0.224679	0.13562	1.78617	1.5708	0	0
5.02	2.71713	1.44023	-1.05136	0.632769	1.78935	0.931584	-0.200181	0.034208	0.00494047	0.800547	-0.31805	0	0	0.18711	-0.00373842	0.0560531	0.349191	-0.34337	0	0	-0.220895	0.0741071	0.0191301	0.095973	-0.352711	-0.0520208	1.89856	1.5708	0	0	0.221382	-0.223867	0.138511	1.78547	1.5708	0	0
5.03	2.73606	1.44146	-1.07031	0.631292	1.7947	0.932278	-0.189508	0.0251621	0.00206673	0.825544	-0.339152	0	0	0.179697	-0.000412431	0.0559491	0.347244	-0.340032	0	0	-0.220842	0.0707431	0.0183307	0.0933311	-0.353638	-0.0556537	1.89702	1.5708	0	0	0.220563	-0.222654	0.141462	1.78442	1.5708	0	0
5.04	2.74568	1.44259	-1.08025	0.629852	1.79983	0.93293	-0.176594	0.0171569	-0.00244077	0.851796	-0.359007	0	0	0.174365	0.00184446	0.0556445	0.347652	-0.336356	0	0	-0.220292	0.0686342	0.0183837	0.0912539	-0.354411	-0.0580393	1.8944	1.5708	0	0	0.220359	-0.220707	0.1455	1.7823	1.5708	0	0
5.05	2.75363	1.44441	-1.08853	0.628532	1.80479	0.933437	-0.160915	0.00898344	-0.00907365	0.881509	-0.378044	0	0	0.170443	0.00442821	0.0557254	0.349063	-0.33159	0	0	-0.217789	0.0661312	0.0193185	0.0887997	-0.354991	-0.0635879	1.89103	1.5708	0	0	0.22229	-0.219111	0.150875	1.77724	1.5708	0	0
5.06	2.75786	1.44446	-1.09243	0.627342	1.80967	0.934051	-0.149117	0.00409038	-0.0130943	0.903989	-0.388216	0	0	0.164519	0.00552326	0.0562007	0.349029	-0.328699	0	0	-0.214199	0.065063	0.0195253	0.0883037	-0.356205	-0.0656483	1.88323	1.5708	0	0	0.225585	-0.218247	0.156696	1.76792	1.5708	0	0
5.07	2.80402	1.43303	-1.13734	0.626332	1.81398	0.935005	-0.150393	-0.000702336	-0.0199223	0.928154	-0.396283	0	0	0.145242	0.00607748	0.0540359	0.34979	-0.324862	0	0	-0.17993	0.0600117	0.0165123	0.104188	-0.356783	-0.0465326	1.81181	1.5708	0	0	0.243761	-0.216089	0.17647	1.6961	1.5708	0	0
5.08	2.76512	1.44203	-1.09918	0.625076	1.81891	0.93542	-0.125278	-0.00371854	-0.0220005	0.953155	-0.402766	0	0	0.14906	0.00692364	0.0559073	0.346648	-0.324575	0	0	-0.217193	0.0643006	0.017196	0.0902732	-0.357432	-0.0668839	1.87507	1.5708	0	0	0.227532	-0.216081	0.160412	1.76351	1.5708	0	0
5.09	2.76481	1.44136	-1.09881	0.623961	1.82326	0.9361	-0.111703	-0.00703588	-0.0254459	0.978408	-0.422994	0	0	0.14106	0.00791663	0.0565593	0.343249	-0.318983	0	0	-0.22276	0.0654593	0.00910986	0.098184	-0.357084	-0.0588743	1.87249	1.5708	0	0	0.220318	-0.21609	0.15084	1.77376	1.5708	0	0
5.1	2.76875	1.43912	-1.10263	0.622938	1.82747	0.936942	-0.100176	-0.00980168	-0.0284286	1.00308	-0.429796	0	0	0.130037	0.00809323	0.0576351	0.337333	-0.315628	0	0	-0.225268	0.0649259	0.00564107	0.102534	-0.352262	-0.059013	1.86823	1.5708	0	0	0.220318	-0.215541	0.15031	1.77218	1.5708	0	0
5.11	2.76959	1.43605	-1.10249	0.621893	1.83155	0.93777	-0.0910281	-0.0108835	-0.0314068	1.02252	-0.430916	0	0	0.119803	0.00754789	0.0587664	0.333445	-0.313914	0	0	-0.229916	0.0685669	0.00365848	0.105946	-0.354582	-0.0567863	1.86104	1.5708	0	0	0.220873	-0.215138	0.151002	1.7707	1.5708	0	0
5.12	2.77311	1.43288	-1.10433	0.620814	1.83545	0.938628	-0.0821555	-0.0122719	-0.0365404	1.04154	-0.429307	0	0	0.109325	0.00754441	0.061946	0.328451	-0.312454	0	0	-0.23394	0.0692554	-0.000359539	0.110146	-0.356077	-0.0564534	1.85601	1.5708	0	0	0.221868	-0.214472	0.150977	1.76903	1.5708	0	0
5.13	2.78967	1.42765	-1.11667	0.61934	1.83959	0.939647	-0.0707008	-0.0198058	-0.0921725	1.06269	-0.431559	0	0	0.0966698	0.00828439	0.063191	0.325219	-0.310959	0	0	-0.238812	0.0687783	-0.00434273	0.111804	-0.361453	-0.0540241	1.85156	1.5708	0	0	0.225385	-0.212916	0.154273	1.76396	1.5708	0	0
5.14	2.81329	1.41901	-1.13525	0.617804	1.84334	0.940911	-0.0637465	-0.0279384	-0.143378	1.07783	-0.42803	0	0	0.0789986	0.00905864	0.0685728	0.318254	-0.30957	0	0	-0.249293	0.0707964	-0.012889	0.119962	-0.360232	-0.0520194	1.84334	1.5708	0	0	0.226445	-0.212624	0.152276	1.76282	1.5708	0	0
5.15	2.80485	1.41679	-1.12462	0.616885	1.84683	0.94168	-0.0541036	-0.027746	-0.14775	1.0894	-0.415445	0	0	0.0719965	0.00708943	0.0704414	0.315708	-0.308411	0	0	-0.251447	0.0719554	-0.0162318	0.124226	-0.362489	-0.0475528	1.83746	1.5708	0	0	0.229264	-0.211666	0.153147	1.75916	1.5708	0	0
5.16	2.78646	1.41383	-1.10438	0.616	1.85008	0.942632	-0.0473194	-0.0230737	-0.147451	1.09036	-0.419471	0	0	0.0656996	0.00317627	0.0709177	0.313915	-0.308543	0	0	-0.254878	0.0757703	-0.0177227	0.127648	-0.362969	-0.0482423	1.83236	1.5708	0	0	0.23302	-0.209838	0.154988	1.75494	1.5708	0	0
5.17	2.79377	1.41337	-1.10858	0.615048	1.85346	0.942866	-0.0352779	-0.0287353	-0.155739	1.1059	-0.385786	0	0	0.0589186	0.0050202	0.0746871	0.310126	-0.304567	0	0	-0.255781	0.0753549	-0.0237201	0.133979	-0.360806	-0.0475446	1.82419	1.5708	0	0	0.23488	-0.209936	0.154307	1.75213	1.5708	0	0
5.18	2.78937	1.41201	-1.10204	0.614131	1.8566	0.943406	-0.0265112	-0.0293547	-0.158321	1.10929	-0.372975	0	0	0.0526124	0.00436674	0.0765002	0.30706	-0.302877	0	0	-0.257121	0.0758694	-0.0266081	0.13873	-0.363188	-0.0432355	1.81847	1.5708	0	0	0.239064	-0.208555	0.155442	1.74706	1.5708	0	0
5.19	2.78472	1.41054	-1.09561	0.613171	1.85956	0.943888	-0.0180691	-0.0304392	-0.159976	1.11098	-0.360182	0	0	0.0465477	0.00377132	0.0783422	0.304388	-0.301095	0	0	-0.259113	0.0773778	-0.0286895	0.143988	-0.364203	-0.0413449	1.81212	1.5708	0	0	0.243582	-0.206841	0.156934	1.74202	1.5708	0	0
5.2	2.779	1.40965	-1.08799	0.612389	1.86251	0.944318	-0.00952309	-0.0318178	-0.161374	1.11069	-0.350781	0	0	0.0415556	0.00291432	0.0797775	0.302576	-0.299685	0	0	-0.26124	0.0787614	-0.0302853	0.148114	-0.364489	-0.0407306	1.80717	1.5708	0	0	0.247932	-0.20515	0.158827	1.73807	1.5708	0	0
5.21	2.77311	1.40901	-1.08025	0.611798	1.86539	0.944694	-0.00135134	-0.0316642	-0.162447	1.10615	-0.337086	0	0	0.0366646	0.00183445	0.0818821	0.29995	-0.297824	0	0	-0.262816	0.0798561	-0.0314963	0.151405	-0.364284	-0.0430028	1.80296	1.5708	0	0	0.25288	-0.203863	0.160487	1.73361	1.5708	0	0
5.22	2.76513	1.40871	-1.0709	0.611421	1.86817	0.945035	0.00660621	-0.0295073	-0.162108	1.09664	-0.324646	0	0	0.0325797	0.000166293	0.0831183	0.297601	-0.296371	0	0	-0.263874	0.080739	-0.0319422	0.154431	-0.364099	-0.0442354	1.79914	1.5708	0	0	0.258099	-0.202916	0.162577	1.72882	1.5708	0	0
5.23	2.74753	1.40831	-1.05247	0.611169	1.87074	0.945554	0.0124221	-0.0237323	-0.157098	1.07888	-0.31107	0	0	0.0294638	-0.00315416	0.0844136	0.295071	-0.294956	0	0	-0.264872	0.083033	-0.0310726	0.15718	-0.36383	-0.0455871	1.79491	1.5708	0	0	0.263693	-0.20174	0.165531	1.7233	1.5708	0	0
5.24	2.75098	1.40856	-1.05465	0.610836	1.87346	0.945636	0.0213609	-0.0272604	-0.159906	1.07284	-0.301829	0	0	0.0252558	-0.00285336	0.0840525	0.293274	-0.293382	0	0	-0.266067	0.0824268	-0.0308266	0.1599	-0.363287	-0.0482945	1.79033	1.5708	0	0	0.269361	-0.200797	0.168721	1.71812	1.5708	0	0
5.25	2.74535	1.40825	-1.04893	0.610522	1.87592	0.946002	0.0283026	-0.0272264	-0.158841	1.0591	-0.29473	0	0	0.0213175	-0.00411676	0.0829109	0.290926	-0.29232	0	0	-0.267307	0.0822906	-0.0292478	0.162901	-0.364869	-0.046684	1.78633	1.5708	0	0	0.275606	-0.198723	0.172914	1.7114	1.5708	0	0
5.26	2.74142	1.40714	-1.04565	0.610208	1.87822	0.946415	0.0342363	-0.0273092	-0.157833	1.04402	-0.289307	0	0	0.01649	-0.00545311	0.081146	0.288655	-0.291132	0	0	-0.268166	0.0827688	-0.0266795	0.166867	-0.366603	-0.0469427	1.77936	1.5708	0	0	0.283172	-0.196677	0.177216	1.70185	1.5708	0	0
5.27	2.76083	1.39557	-1.06561	0.609994	1.8799	0.947178	0.0257046	-0.0239029	-0.155403	1.0216	-0.284687	0	0	0.000842559	-0.00904931	0.0775417	0.288153	-0.288851	0	0	-0.248375	0.0825133	-0.0236702	0.18213	-0.368024	-0.0335565	1.72399	1.5708	0	0	0.303822	-0.192514	0.19262	1.64187	1.5708	0	0
5.28	2.71727	1.40754	-1.02331	0.609881	1.88279	0.9471	0.0461381	-0.0236497	-0.152613	1.00207	-0.280061	0	0	0.0112227	-0.0093017	0.0798536	0.284874	-0.289547	0	0	-0.268063	0.0859693	-0.0248541	0.177605	-0.367733	-0.041868	1.76656	1.5708	0	0	0.292154	-0.193302	0.176583	1.69058	1.5708	0	0
5.29	2.70178	1.41118	-1.008	0.609836	1.88532	0.947124	0.055387	-0.0237239	-0.152057	0.981358	-0.272462	0	0	0.0122267	-0.00981035	0.08054	0.283518	-0.289079	0	0	-0.269223	0.0885172	-0.0314429	0.18701	-0.365371	-0.0346274	1.76579	1.5708	0	0	0.286867	-0.193974	0.165427	1.69924	1.5708	0	0
5.3	2.70182	1.41326	-1.00748	0.60971	1.88788	0.947154	0.062478	-0.0268276	-0.155399	0.963277	-0.253677	0	0	0.00952934	-0.0086927	0.0823658	0.280332	-0.286969	0	0	-0.269542	0.0902819	-0.0454654	0.205167	-0.362227	-0.0149535	1.75505	1.5708	0	0	0.277554	-0.196379	0.147677	1.7075	1.5708	0	0
5.31	2.69617	1.41341	-1.00213	0.609533	1.89018	0.94741	0.0659781	-0.0262962	-0.15531	0.937675	-0.24641	0	0	0.00595796	-0.00942034	0.083026	0.277617	-0.285335	0	0	-0.27059	0.0927453	-0.0467814	0.211966	-0.361736	-0.010789	1.75039	1.5708	0	0	0.279528	-0.194825	0.144398	1.70429	1.5708	0	0
5.32	2.68958	1.41348	-0.995452	0.609336	1.89242	0.947601	0.0688298	-0.0255161	-0.155091	0.910496	-0.240418	0	0	0.00290051	-0.010351	0.0841563	0.275825	-0.283506	0	0	-0.271201	0.0944387	-0.046968	0.217341	-0.36161	-0.0106981	1.74482	1.5708	0	0	0.283042	-0.192489	0.142762	1.70001	1.5708	0	0
5.33	2.6821	1.41424	-0.987561	0.60921	1.89467	0.947753	0.0715528	-0.0248148	-0.154508	0.88157	-0.235636	0	0	0.000871779	-0.0110895	0.0856166	0.274408	-0.28219	0	0	-0.270367	0.0951285	-0.0473487	0.222041	-0.361627	-0.00889263	1.73952	1.5708	0	0	0.286914	-0.190256	0.141817	1.69472	1.5708	0	0
5.34	2.67465	1.41513	-0.97954	0.609125	1.89689	0.947917	0.0739146	-0.0242929	-0.153416	0.852164	-0.232061	0	0	-0.000843098	-0.0117488	0.0873287	0.273178	-0.281083	0	0	-0.268835	0.0951241	-0.0477908	0.226327	-0.361799	-0.00514534	1.73427	1.5708	0	0	0.290645	-0.187745	0.141895	1.68847	1.5708	0	0
5.35	2.66776	1.4157	-0.972348	0.609015	1.899	0.94806	0.0758272	-0.0241114	-0.151507	0.823167	-0.229274	0	0	-0.00266946	-0.0123937	0.0886386	0.272301	-0.279911	0	0	-0.26816	0.0959694	-0.0478888	0.231323	-0.362901	-0.00342039	1.72747	1.5708	0	0	0.294005	-0.184975	0.141893	1.68262	1.5708	0	0
5.36	2.65929	1.41692	-0.963391	0.609038	1.90115	0.948133	0.0778062	-0.0229349	-0.149132	0.793195	-0.226875	0	0	-0.00362003	-0.0130351	0.0899949	0.271552	-0.278841	0	0	-0.265654	0.0959646	-0.0491838	0.236124	-0.361721	0.000399453	1.72129	1.5708	0	0	0.296788	-0.182826	0.140115	1.67656	1.5708	0	0
5.37	2.65362	1.41779	-0.957479	0.609147	1.90322	0.948184	0.0790811	-0.0208895	-0.145889	0.763375	-0.225445	0	0	-0.00502465	-0.0134437	0.0911977	0.27102	-0.277668	0	0	-0.264248	0.0961222	-0.0494508	0.240262	-0.360778	0.00228554	1.71579	1.5708	0	0	0.300271	-0.180899	0.137913	1.67113	1.5708	0	0
